<svg xmlns="http://www.w3.org/2000/svg" xmlns:xlink="http://www.w3.org/1999/xlink" viewBox="0 0 297.846 297.846"><defs><style>.a{fill:none;}.b{clip-path:url(#a);}.c{fill:#fff;}</style><clipPath id="a" transform="translate(-1.125 -1)"><rect class="a" x="-556.021" y="-231.473" width="1315.5" height="930.125"/></clipPath></defs><title>line</title><g class="b"><path d="M245.1,1H55.411C25.668,1,1.125,25.127,1.125,54.87V244.56c0,29.743,24.127,54.286,53.87,54.286h189.69c29.743,0,54.286-24.127,54.286-53.87V55.286C298.971,25.543,274.844,1,245.1,1" transform="translate(-1.125 -1)"/><path class="c" d="M258.014,136.9c0-48.462-48.67-87.981-108.572-87.981S40.87,88.438,40.87,136.9c0,43.471,38.687,80.077,90.685,86.941,3.536.832,8.32,2.288,9.568,5.408,1.04,2.7.624,7.072.416,9.776,0,0-1.248,7.7-1.456,9.36-.416,2.7-2.08,10.816,9.36,5.824,11.648-4.784,62.4-36.815,85.277-63.022h0c15.807-17.263,23.3-34.943,23.3-54.286" transform="translate(-1.125 -1)"/><path d="M127.471,113.44h-7.7a2.084,2.084,0,0,0-2.08,2.08v47.214a2.084,2.084,0,0,0,2.08,2.08h7.7a2.084,2.084,0,0,0,2.08-2.08V115.52a2.084,2.084,0,0,0-2.08-2.08" transform="translate(-1.125 -1)"/><path d="M179.854,113.44h-7.7a2.084,2.084,0,0,0-2.08,2.08V143.6L148.447,114.48l-.208-.208h0l-.208-.208h-9.36a2.084,2.084,0,0,0-2.08,2.08v47.214a2.084,2.084,0,0,0,2.08,2.08h7.7a2.084,2.084,0,0,0,2.08-2.08V135.279l21.631,29.327.624.624h9.152a2.084,2.084,0,0,0,2.08-2.08V115.52a2.084,2.084,0,0,0-2.08-2.08" transform="translate(-1.125 -1)"/><path d="M109.126,153.1H88.535V115.45a2.084,2.084,0,0,0-2.08-2.08h-7.7a2.084,2.084,0,0,0-2.08,2.08v47.422h0a1.888,1.888,0,0,0,.624,1.456h0a1.888,1.888,0,0,0,1.456.624h30.367a2.084,2.084,0,0,0,2.08-2.08v-7.7a2.084,2.084,0,0,0-2.08-2.08" transform="translate(-1.125 -1)"/><path d="M221.882,125.278a2.084,2.084,0,0,0,2.08-2.08v-7.7a2.084,2.084,0,0,0-2.08-2.08H191.515a1.888,1.888,0,0,0-1.456.624h0a1.888,1.888,0,0,0-.624,1.456h0v47.214h0a1.888,1.888,0,0,0,.624,1.456h0a1.888,1.888,0,0,0,1.456.624h30.367a2.084,2.084,0,0,0,2.08-2.08v-7.7a2.084,2.084,0,0,0-2.08-2.08H201.29v-7.9h20.591a2.084,2.084,0,0,0,2.08-2.08v-7.7a2.084,2.084,0,0,0-2.08-2.08H201.29v-7.9Z" transform="translate(-1.125 -1)"/></g></svg>
