<svg xmlns="http://www.w3.org/2000/svg" viewBox="0 0 7200 7200">
  <defs>
    <style>
      .cls-1 {
        fill: none;
        stroke: #c42f98;
        stroke-miterlimit: 10;
        stroke-width: 600px;
      }

      .cls-2 {
        fill: #c42f98;
      }
    </style>
  </defs>
  <title>symbol</title>
  <g id="Layer_2" data-name="Layer 2">
    <g>
      <line class="cls-1" x1="690" y1="5581" x2="5087" y2="542"/>
      <line class="cls-2" x1="690" y1="5581" x2="5087" y2="542"/>
    </g>
    <g>
      <line class="cls-1" x1="2675" y1="3521" x2="5683" y2="6337"/>
      <line class="cls-2" x1="2675" y1="3521" x2="5683" y2="6337"/>
    </g>
  </g>
  <g id="Layer_1" data-name="Layer 1">
    <path d="M3600,500a3125,3125,0,0,1,625,63,3080,3080,0,0,1,1108,466A3111,3111,0,0,1,6457,2393a3081,3081,0,0,1,180,581,3135,3135,0,0,1,0,1251,3080,3080,0,0,1-466,1108A3111,3111,0,0,1,4807,6457a3081,3081,0,0,1-581,180,3135,3135,0,0,1-1251,0,3080,3080,0,0,1-1108-466A3111,3111,0,0,1,743,4807a3081,3081,0,0,1-180-581,3135,3135,0,0,1,0-1251,3080,3080,0,0,1,466-1108A3111,3111,0,0,1,2393,743a3081,3081,0,0,1,581-180,3125,3125,0,0,1,625-63m0-500C1612,0,0,1612,0,3600S1612,7200,3600,7200,7200,5588,7200,3600,5588,0,3600,0Z" transform="translate(0 0)"/>
  </g>
</svg>
