<svg xmlns="http://www.w3.org/2000/svg" viewBox="0 0 297.846 297.846"><defs><style>.a{fill:none}.b{clip-path:url(#a)}.c{fill:#fff}</style><clipPath id="a" transform="translate(-1.125 -1)"><path class="a" d="M-556.021-231.473h1315.5v930.125h-1315.5z"/></clipPath></defs><title>line</title><g class="b"><path d="M243.975 0H54.286C24.543 0 0 24.127 0 53.87v189.69c0 29.743 24.127 54.286 53.87 54.286h189.69c29.743 0 54.286-24.127 54.286-53.87V54.286C297.846 24.543 273.719 0 243.975 0"/><path class="c" d="M256.889 135.9c0-48.462-48.67-87.981-108.572-87.981S39.745 87.438 39.745 135.9c0 43.471 38.687 80.077 90.685 86.941 3.536.832 8.32 2.288 9.568 5.408 1.04 2.7.624 7.072.416 9.776 0 0-1.248 7.7-1.456 9.36-.416 2.7-2.08 10.816 9.36 5.824 11.648-4.784 62.4-36.815 85.277-63.022 15.807-17.263 23.3-34.943 23.3-54.286"/><path d="M126.346 112.44h-7.7a2.084 2.084 0 0 0-2.08 2.08v47.214a2.084 2.084 0 0 0 2.08 2.08h7.7a2.084 2.084 0 0 0 2.08-2.08V114.52a2.084 2.084 0 0 0-2.08-2.08M178.729 112.44h-7.7a2.084 2.084 0 0 0-2.08 2.08v28.08l-21.627-29.12-.208-.208-.208-.208h-9.36a2.084 2.084 0 0 0-2.08 2.08v47.214a2.084 2.084 0 0 0 2.08 2.08h7.7a2.084 2.084 0 0 0 2.08-2.08v-28.079l21.631 29.327.624.624h9.152a2.084 2.084 0 0 0 2.08-2.08v-47.63a2.084 2.084 0 0 0-2.08-2.08M108.001 152.1H87.41v-37.65a2.084 2.084 0 0 0-2.08-2.08h-7.7a2.084 2.084 0 0 0-2.08 2.08v47.422a1.888 1.888 0 0 0 .624 1.456 1.888 1.888 0 0 0 1.456.624h30.367a2.084 2.084 0 0 0 2.08-2.08v-7.7a2.084 2.084 0 0 0-2.08-2.08M220.757 124.278a2.084 2.084 0 0 0 2.08-2.08v-7.7a2.084 2.084 0 0 0-2.08-2.08H190.39a1.888 1.888 0 0 0-1.456.624 1.888 1.888 0 0 0-.624 1.456v47.214a1.888 1.888 0 0 0 .624 1.456 1.888 1.888 0 0 0 1.456.624h30.367a2.084 2.084 0 0 0 2.08-2.08v-7.7a2.084 2.084 0 0 0-2.08-2.08h-20.592v-7.9h20.591a2.084 2.084 0 0 0 2.08-2.08v-7.7a2.084 2.084 0 0 0-2.08-2.08h-20.591v-7.9z"/></g></svg>